<svg xmlns="http://www.w3.org/2000/svg" width="30" height="30" viewBox="0 0 30 30">
  <g id="Groupe_8637" data-name="Groupe 8637" transform="translate(-1710 -63)">
    <g id="Ellipse_315" data-name="Ellipse 315" transform="translate(1710 63)" fill="none" stroke="#ece6d0" stroke-width="1">
      <circle cx="15" cy="15" r="15" stroke="none"/>
      <circle cx="15" cy="15" r="14.5" fill="none"/>
    </g>
    <path id="Icon_awesome-dribbble" data-name="Icon awesome-dribbble" d="M8.552.563A7.936,7.936,0,1,0,16.542,8.5,7.972,7.972,0,0,0,8.552.563Zm5.282,3.659a6.718,6.718,0,0,1,1.541,4.222,16.054,16.054,0,0,0-4.752-.218c-.185-.449-.36-.845-.6-1.332A9.084,9.084,0,0,0,13.834,4.222Zm-.759-.784A7.7,7.7,0,0,1,9.5,5.887,36.154,36.154,0,0,0,6.953,1.919a6.84,6.84,0,0,1,6.123,1.52ZM5.651,2.374a43.218,43.218,0,0,1,2.53,3.92,25.619,25.619,0,0,1-6.309.826A6.811,6.811,0,0,1,5.651,2.374ZM1.728,8.508c0-.069,0-.138,0-.207a25.335,25.335,0,0,0,7.014-.965c.2.38.382.765.553,1.15A10.558,10.558,0,0,0,3.482,13.04,6.725,6.725,0,0,1,1.728,8.508Zm2.635,5.347a9.585,9.585,0,0,1,5.4-4.248,28.025,28.025,0,0,1,1.456,5.14,6.848,6.848,0,0,1-6.854-.892Zm8,.272a29.1,29.1,0,0,0-1.326-4.833,10.081,10.081,0,0,1,4.251.29,6.786,6.786,0,0,1-2.925,4.543Z" transform="translate(1716.448 69.448)" fill="#ece6d0"/>
  </g>
</svg>
