<svg xmlns="http://www.w3.org/2000/svg" width="30" height="30" viewBox="0 0 30 30">
  <g id="Groupe_8638" data-name="Groupe 8638" transform="translate(-1750 -63)">
    <g id="Ellipse_316" data-name="Ellipse 316" transform="translate(1750 63)" fill="none" stroke="#ece6d0" stroke-width="1">
      <circle cx="15" cy="15" r="15" stroke="none"/>
      <circle cx="15" cy="15" r="14.5" fill="none"/>
    </g>
    <path id="Icon_awesome-linkedin-in" data-name="Icon awesome-linkedin-in" d="M2.883,12.881H.213v-8.6h2.67ZM1.547,3.108A1.554,1.554,0,1,1,3.093,1.547,1.56,1.56,0,0,1,1.547,3.108Zm11.331,9.773H10.213V8.695c0-1-.02-2.277-1.388-2.277-1.388,0-1.6,1.084-1.6,2.205v4.258H4.556v-8.6H7.117V5.455h.037A2.806,2.806,0,0,1,9.681,4.066c2.7,0,3.2,1.78,3.2,4.091v4.724Z" transform="translate(1759.264 70.711)" fill="#ece6d0"/>
  </g>
</svg>
